HIERARCHY
ROOT SpineBase
{
  OFFSET 0.000000 0.000000 0.000000
  CHANNELS 6 Xposition Yposition Zposition Zrotation Xrotation Yrotation
  JOINT SpineMid
  {
    OFFSET 0.000000 32.257452 0.000000
    CHANNELS 3 Zrotation Xrotation Yrotation
    JOINT SpineShoulder
    {
      OFFSET 0.228734 23.847183 -0.650635
      CHANNELS 3 Zrotation Xrotation Yrotation
      JOINT Neck
      {
        OFFSET 0.125368 7.837354 -0.520316
        CHANNELS 3 Zrotation Xrotation Yrotation
        JOINT Head
        {
          OFFSET 0.497132 12.280613 -1.582066
          CHANNELS 3 Zrotation Xrotation Yrotation
          End Site
          {
            OFFSET 0 0 0
          }
        }
      }
      JOINT ShoulderLeft
      {
        OFFSET -15.988280 -2.115183 -6.627407
        CHANNELS 3 Zrotation Xrotation Yrotation
        JOINT ElbowLeft
        {
          OFFSET -5.346780 -28.165427 -3.259490
          CHANNELS 3 Zrotation Xrotation Yrotation
          JOINT WristLeft
          {
            OFFSET 1.031990 -23.092724 -5.552310
            CHANNELS 3 Zrotation Xrotation Yrotation
            JOINT HandLeft
            {
              OFFSET -0.319931 -4.900955 0.889057
              CHANNELS 3 Zrotation Xrotation Yrotation
              JOINT HandTipLeft
              {
                OFFSET 0.392522 -7.531104 -0.693165
                CHANNELS 3 Zrotation Xrotation Yrotation
                End Site
                {
                  OFFSET 0 0 0
                }
              }
              JOINT ThumbLeft
              {
                OFFSET -3.779774 2.029475 -3.223407
                CHANNELS 3 Zrotation Xrotation Yrotation
                End Site
                {
                  OFFSET 0 0 0
                }
              }
            }
          }
        }
      }
      JOINT ShoulderRight
      {
        OFFSET 16.977513 -4.944869 5.118502
        CHANNELS 3 Zrotation Xrotation Yrotation
        JOINT ElbowRight
        {
          OFFSET 4.679194 -29.912746 1.419850
          CHANNELS 3 Zrotation Xrotation Yrotation
          JOINT WristRight
          {
            OFFSET 3.059230 -23.228158 -3.244425
            CHANNELS 3 Zrotation Xrotation Yrotation
            JOINT HandRight
            {
              OFFSET -1.005221 -4.564820 0.623960
              CHANNELS 3 Zrotation Xrotation Yrotation
              JOINT HandTipRight
              {
                OFFSET 1.018009 -5.727629 -0.333840
                CHANNELS 3 Zrotation Xrotation Yrotation
                End Site
                {
                  OFFSET 0 0 0
                }
              }
              JOINT ThumbRight
              {
                OFFSET 1.868480 -0.450802 -1.095448
                CHANNELS 3 Zrotation Xrotation Yrotation
                End Site
                {
                  OFFSET 0 0 0
                }
              }
            }
          }
        }
      }
    }
  }
  JOINT HipLeft
  {
    OFFSET -6.675916 0.692855 -6.078132
    CHANNELS 3 Zrotation Xrotation Yrotation
    JOINT KneeLeft
    {
      OFFSET -4.293448 -31.860102 1.608752
      CHANNELS 3 Zrotation Xrotation Yrotation
      JOINT AnkleLeft
      {
        OFFSET -4.599951 -37.301572 9.487905
        CHANNELS 3 Zrotation Xrotation Yrotation
        JOINT FootLeft
        {
          OFFSET 4.140879 -4.648983 -13.101217
          CHANNELS 3 Zrotation Xrotation Yrotation
          End Site
          {
            OFFSET 0 0 0
          }
        }
      }
    }
  }
  JOINT HipRight
  {
    OFFSET 8.108931 0.105317 -1.124308
    CHANNELS 3 Zrotation Xrotation Yrotation
    JOINT KneeRight
    {
      OFFSET 0.776336 -32.710556 4.619556
      CHANNELS 3 Zrotation Xrotation Yrotation
      JOINT AnkleRight
      {
        OFFSET 0.122539 -39.015595 12.223558
        CHANNELS 3 Zrotation Xrotation Yrotation
        JOINT FootRight
        {
          OFFSET 3.985325 -5.979280 -9.933585
          CHANNELS 3 Zrotation Xrotation Yrotation
          End Site
          {
            OFFSET 0 0 0
          }
        }
      }
    }
  }
}
MOTION
Frames: 13
Frame Time: 0.033333
-74.541914 81.314922 393.580024 0.897251 -1.006401 -22.714328 0.392661 -0.303045 22.769417 0.063931 -0.225371 0.063238 -8.308352 6.235682 -0.700829 0.000000 0.000000 0.000000 -2.238803 0.405299 0.288444 1.777623 -0.543726 -0.635758 6.811008 17.907178 -0.741563 -3.667041 -14.678999 -0.595238 0.000000 0.000000 0.000000 0.000000 0.000000 0.000000 -1.203606 1.665100 -0.089126 -0.000000 0.000000 0.000000 17.405963 -4.262419 4.105294 -25.738973 2.583037 -2.112858 0.000000 0.000000 0.000000 0.000000 0.000000 0.000000 -0.522431 -0.954891 22.959963 -0.039564 1.685570 -0.228737 1.079016 -0.262232 -3.264736 0.000000 0.000000 0.000000 -1.216323 0.581747 22.728383 -0.000000 0.000000 0.000000 3.182394 10.148610 1.038519 0.000000 0.000000 0.000000
-74.491911 81.309356 393.544369 1.005035 -1.005509 -22.793938 0.434996 -0.292622 22.854295 0.113943 -0.221999 0.072133 -9.473214 7.127309 -0.742288 0.000000 0.000000 0.000000 -2.234497 0.470688 0.239545 1.698452 -0.626090 -0.628682 6.392718 18.484471 -0.787296 -2.661264 -14.112767 -0.314414 0.000000 0.000000 0.000000 0.000000 0.000000 0.000000 -1.403530 1.668599 -0.099514 -0.000000 0.000000 0.000000 18.454110 -4.814062 4.521219 -26.009318 3.502587 -2.178718 0.000000 0.000000 0.000000 0.000000 0.000000 0.000000 -0.596643 -1.129602 23.058003 -0.009182 1.815659 -0.245209 1.807417 1.553342 -3.548126 0.000000 0.000000 0.000000 -1.316144 0.537452 22.808930 -0.000000 0.000000 0.000000 3.363823 10.093923 0.735724 0.000000 0.000000 0.000000
-74.449252 81.304552 393.526599 1.112950 -1.020741 -22.821014 0.572446 -0.282416 22.889479 0.164024 -0.224345 0.085063 -9.158886 6.654898 -0.730786 0.000000 0.000000 0.000000 -2.347382 0.419047 0.222851 1.604351 -0.280704 -0.641884 7.109406 19.608435 -0.938766 -2.036473 -13.963567 -0.180535 0.000000 0.000000 0.000000 0.000000 0.000000 0.000000 -1.691350 1.731305 -0.114522 -0.000000 0.000000 0.000000 17.997919 -2.714670 3.621854 -24.548028 1.767086 -2.298426 0.000000 0.000000 0.000000 0.000000 0.000000 0.000000 -0.657949 -1.317176 23.108925 0.014090 1.979394 -0.266537 1.007729 -0.745628 -3.533532 0.000000 0.000000 0.000000 -1.421769 0.508983 22.837244 -0.000000 0.000000 0.000000 3.341668 10.124588 0.785660 0.000000 0.000000 0.000000
-74.437429 81.307689 393.509940 1.256971 -1.045624 -22.664691 0.722565 -0.250207 22.742884 0.194327 -0.215530 0.098842 -7.961193 5.291550 -0.673487 0.000000 0.000000 0.000000 -2.134142 0.662951 0.096072 1.078605 0.038849 -0.515732 7.636941 21.051454 -1.182305 -3.436670 -17.675454 -0.372713 0.000000 0.000000 0.000000 0.000000 0.000000 0.000000 -1.402063 1.061537 -0.228544 -0.607904 -0.400988 -0.061976 15.108724 -0.400999 2.539070 -21.648144 0.512019 -2.000371 0.000000 0.000000 0.000000 0.000000 0.000000 0.000000 -0.668262 -1.573127 22.994481 -0.021566 2.239675 -0.302814 0.142021 -2.569063 -2.862894 0.000000 0.000000 0.000000 -1.562857 0.480277 22.682712 -0.000000 0.000000 0.000000 2.947815 10.292377 1.469516 0.000000 0.000000 0.000000
-74.448761 81.320661 393.477872 1.395921 -1.081117 -22.734985 0.835133 -0.208449 22.821648 0.178538 -0.189269 0.107821 -6.046268 3.176522 -0.523031 0.000000 0.000000 0.000000 -1.803494 0.960902 -0.049645 0.384625 0.118324 -0.342945 7.999471 23.077767 -1.550954 -3.401605 -19.588904 -0.181120 0.000000 0.000000 0.000000 0.000000 0.000000 0.000000 -1.298122 0.347180 -0.340869 -1.182920 -0.503801 -0.032291 12.876795 3.591635 1.013891 -20.279810 -5.647494 -2.396762 0.000000 0.000000 0.000000 0.000000 0.000000 0.000000 -0.626634 -1.818941 23.112350 -0.098944 2.516921 -0.342395 -0.625277 -3.881444 -1.909054 0.000000 0.000000 0.000000 -1.705310 0.457339 22.754962 -0.000000 0.000000 0.000000 2.416640 10.510337 2.388391 0.000000 0.000000 0.000000
-74.458062 81.326294 393.475686 1.594012 -1.139244 -22.131911 0.960975 -0.172346 22.230193 0.191418 -0.187653 0.122353 -2.961069 0.416790 -0.140530 0.000000 0.000000 0.000000 -1.125957 1.805603 -0.370428 -0.602541 0.247152 -0.040644 7.662952 23.599735 -1.658920 -3.121576 -19.823273 0.056791 0.000000 0.000000 0.000000 0.000000 0.000000 0.000000 -1.284739 0.011260 -0.406762 -1.748816 -1.353707 -0.113849 7.840106 10.255243 -1.084713 -17.168463 -14.170100 -2.451044 0.000000 0.000000 0.000000 0.000000 0.000000 0.000000 -0.774450 -1.861988 22.524323 -0.158133 2.572961 -0.351555 -1.376673 -4.587320 -0.300671 0.000000 0.000000 0.000000 -1.905789 0.454379 22.155317 -0.000000 0.000000 0.000000 1.537148 10.810957 3.881287 0.000000 0.000000 0.000000
-74.473596 81.317431 393.481116 1.928164 -1.246968 -21.168394 1.107824 -0.143144 21.285529 0.188581 -0.194913 0.143048 0.535725 -2.437734 0.476571 0.000000 0.000000 0.000000 -0.400386 2.718527 -0.747434 -1.580252 0.922794 0.242339 6.798773 24.453947 -1.795493 -3.055609 -19.938658 0.351211 0.000000 0.000000 0.000000 0.000000 0.000000 0.000000 -0.633523 -0.613477 -0.500254 -3.462479 -1.940170 -0.108195 2.820928 15.685640 -2.153121 -12.023634 -19.026615 -1.447233 0.000000 0.000000 0.000000 0.000000 0.000000 0.000000 -1.126041 -1.788014 21.560778 -0.215946 2.508579 -0.344577 -2.100897 -4.689839 1.906514 0.000000 0.000000 0.000000 -2.248372 0.465933 21.198522 -0.000000 0.000000 0.000000 0.318834 11.133813 5.909622 0.000000 0.000000 0.000000
-74.532627 81.342526 393.477856 2.341550 -1.353914 -19.466123 1.230131 -0.165161 19.606535 0.152680 -0.206965 0.164333 3.963736 -5.210628 1.265553 0.000000 0.000000 0.000000 0.860616 4.149667 -1.354017 -2.923526 1.234597 0.616811 5.164122 23.410727 -1.643692 -3.145472 -18.355667 0.526115 0.000000 0.000000 0.000000 0.000000 0.000000 0.000000 0.500634 -1.451659 -0.592859 -6.025874 -2.479293 -0.017069 -1.742258 22.776878 -2.894124 -7.326023 -24.786063 -0.048039 0.000000 0.000000 0.000000 0.000000 0.000000 0.000000 -1.421772 -1.465040 19.846168 -0.498666 2.263720 -0.320556 -2.775798 -4.204560 4.541000 0.000000 0.000000 0.000000 -1.988865 1.134095 19.624094 -0.845670 -0.376642 -0.131113 -1.175192 11.419660 8.358240 0.000000 0.000000 0.000000
-74.569440 81.302425 393.502849 2.847116 -1.527334 -16.688661 1.186866 -0.243281 16.856160 0.083206 -0.211556 0.181146 8.302179 -7.127750 2.260736 0.000000 0.000000 0.000000 1.954067 5.204791 -1.858337 -4.265779 2.704832 0.945776 5.368117 22.350213 -1.627053 -3.600283 -15.538634 0.532891 0.000000 0.000000 0.000000 0.000000 0.000000 0.000000 1.794280 -1.848618 -0.617098 -8.248980 -2.338003 0.113391 -4.835679 25.331071 -2.802018 -3.838567 -26.343098 1.248816 0.000000 0.000000 0.000000 0.000000 0.000000 0.000000 -2.016501 -0.771391 17.007961 -0.685443 1.689379 -0.252166 -3.176629 -0.943865 8.478859 0.000000 0.000000 0.000000 -2.326160 1.378779 16.884058 -1.202272 -1.304640 -0.221228 -2.724088 12.428124 11.212815 0.000000 0.000000 0.000000
-74.579952 81.188234 393.566061 3.432260 -1.662902 -12.934492 1.065102 -0.280002 13.129256 0.058192 -0.191593 0.199448 12.644131 -7.794784 3.196168 0.000000 0.000000 0.000000 2.934236 5.996975 -2.343392 -5.651305 4.609225 1.253514 6.747215 20.086842 -1.357095 -5.793071 -12.713465 -0.193161 0.000000 0.000000 0.000000 0.000000 0.000000 0.000000 3.187049 -2.160730 -0.595285 -10.286083 -1.751272 0.252143 -5.996131 23.300928 -2.431709 -1.074531 -22.528170 2.440017 0.000000 0.000000 0.000000 0.000000 0.000000 0.000000 -2.805427 0.121500 13.164141 -0.722401 0.916923 -0.154195 -4.062296 -2.317316 10.183776 0.000000 0.000000 0.000000 -2.602419 1.524405 13.173357 -1.540303 -1.398581 -0.289698 -4.563345 12.559371 14.354735 0.000000 0.000000 0.000000
-74.533102 81.048308 393.665263 4.054906 -1.800712 -8.489859 1.048572 -0.333716 8.717913 0.105232 -0.192406 0.228328 15.978832 -7.295748 3.769030 0.000000 0.000000 0.000000 3.338920 6.390312 -2.673509 -6.775016 7.042237 1.468601 9.286618 19.043851 -1.037224 -7.719423 -12.884781 -1.049386 0.000000 0.000000 0.000000 0.000000 0.000000 0.000000 4.279615 -2.034467 -0.559186 -12.052127 -0.963339 0.355076 -4.973133 19.290328 -2.253620 -1.251897 -18.464347 2.217246 0.000000 0.000000 0.000000 0.000000 0.000000 0.000000 -4.277138 1.178169 8.597608 -0.000000 0.000000 0.000000 -4.629074 -2.577858 11.785480 0.000000 0.000000 0.000000 -2.895213 1.705216 8.774366 -1.907819 -1.505690 -0.369337 -6.181468 12.570953 17.206814 0.000000 0.000000 0.000000
-74.457267 80.807946 393.772368 4.800118 -1.941317 -3.988421 1.061973 -0.368258 4.256384 0.154812 -0.184050 0.262950 17.570405 -5.468381 3.701481 0.000000 0.000000 0.000000 3.061103 6.061649 -2.721450 -7.500262 9.882953 1.561173 10.496099 16.789807 -0.530488 -9.510098 -11.909113 -1.726768 0.000000 0.000000 0.000000 0.000000 0.000000 0.000000 5.292721 -2.161583 -0.542380 -13.466406 1.026779 0.591948 -0.544043 15.288550 -2.429119 -5.324401 -12.122024 2.003289 0.000000 0.000000 0.000000 0.000000 0.000000 0.000000 -4.644921 2.364768 4.045027 -0.038694 0.019338 0.064324 -5.084879 -2.425256 12.859588 0.000000 0.000000 0.000000 -3.273701 1.953315 4.329107 -2.331290 -1.689040 -0.464118 -7.396369 12.534129 19.469198 0.000000 0.000000 0.000000
-74.376071 80.488934 393.875039 5.610643 -2.126887 -0.052825 1.057913 -0.400872 0.367277 0.177271 -0.174566 0.298033 20.211730 -4.167678 3.847280 0.000000 0.000000 0.000000 1.933001 4.939177 -2.382450 -7.532016 13.572149 1.516126 10.827753 11.122136 0.485258 -9.854291 -7.754166 -1.878978 0.000000 0.000000 0.000000 0.000000 0.000000 0.000000 5.322342 -1.070400 -0.518365 -13.897200 0.634368 0.303054 -1.380960 13.655199 -2.207785 -3.343369 -12.749559 1.754559 0.000000 0.000000 0.000000 0.000000 0.000000 0.000000 -5.556182 3.428739 0.083480 0.202656 -0.221747 0.110130 -6.350306 -6.227941 14.744065 0.000000 0.000000 0.000000 -3.736154 2.312971 0.458098 -2.722592 -1.979244 -0.554379 -8.369064 12.548244 21.340959 0.000000 0.000000 0.000000
